<?xml version="1.0" encoding="UTF-8"?>
<svg id="Layer_2" data-name="Layer 2" xmlns="http://www.w3.org/2000/svg" viewBox="0 0 97.95 126.34">
  <defs>
    <style>
      .cls-1 {
        fill: #d090a4;
        stroke-width: 0px;
      }
    </style>
  </defs>
  <g id="Layer_1-2" data-name="Layer 1">
    <g>
      <path class="cls-1" d="m34.18,126.33c-10.44,0-20.89,0-31.33,0-2.68,0-2.8-.11-2.8-2.71,0-24.81-.14-49.62.07-74.43.11-12.61,3.15-24.48,11.44-34.43C19.31,5.43,29.43.68,41.49.06c8.06-.42,15.62,1.38,22.56,5.57,15.07,9.12,19.48,28.19,10.75,41.26-2.81,4.2-6.52,7.39-10.97,9.77-1.52.81-2.32.43-2.83-1.23-2.22-7.19-4.51-14.35-6.78-21.52-.58-1.82-1.45-3.5-2.44-5.12-3.28-5.34-12.09-5.2-15.26.31-1.3,2.26-2.16,4.67-2.95,7.12-6.8,21.23-13.1,42.62-19.5,63.97-.8,2.68-.65,5.13,1.61,7.05,2.82,2.41,6.54,1.73,8.72-1.64,1.58-2.45,2.91-5.05,4.48-7.51,6.35-9.94,13.83-18.82,24.29-24.67,9.75-5.45,19.89-6.7,30.13-1.43,9.24,4.76,13.79,12.74,14.58,22.91,1.09,14.02-8.45,25.84-21.94,29.75-4,1.16-8.08,1.7-12.24,1.69-9.83,0-19.67,0-29.5,0h0Zm40.75-23.61c-.01-.15,0-.43-.06-.69-1.89-6.5-3.64-13.06-5.74-19.49-.97-2.96-4.33-4.12-7.27-3.06-2.85,1.02-4.32,3.78-3.6,6.86.39,1.65.87,3.27,1.35,4.9,1.28,4.36,2.54,8.72,3.87,13.06.88,2.88,3.68,4.71,6.37,4.28,2.93-.47,5.11-2.92,5.1-5.86Z"/>
      <path class="cls-1" d="m50.61,60.71c.06,1.05-.51,1.55-1.16,1.93-4.82,2.84-9.12,6.34-13.18,10.16-.42.4-.92,1-1.57.51-.53-.4-.16-1.03-.03-1.52,2.84-9.97,5.7-19.94,8.58-29.9.16-.55.21-1.35.93-1.44.82-.1.91.7,1.06,1.25,1.74,6.06,3.45,12.12,5.17,18.19.09.32.15.66.19.82Z"/>
    </g>
  </g>
</svg>